<?xml version="1.0" encoding="utf-8"?>
<!-- Generator: Adobe Illustrator 25.0.1, SVG Export Plug-In . SVG Version: 6.00 Build 0)  -->
<svg version="1.1" id="Layer_1" xmlns="http://www.w3.org/2000/svg" xmlns:xlink="http://www.w3.org/1999/xlink" x="0px" y="0px"
	 viewBox="0 0 70 50" style="enable-background:new 0 0 70 50;" xml:space="preserve">
<style type="text/css">
	.st0{fill:#EB3301;}
	.st1{fill:#FFFFFF;}
	.st2{fill:none;stroke:#FFFFFF;stroke-width:2;stroke-miterlimit:10;}
</style>
<rect y="0" class="st0" width="70" height="50"/>
<g>
	<g>
		<path class="st1" d="M38.4,17.82h8.32v2.14h-5.99v3.88h5.42v2.14h-5.42v6.04H38.4V17.82z"/>
		<path class="st1" d="M51.56,17.82l3.85,10.31h0.16l3.85-10.31h2.87v14.19h-2.24v-9.76h-0.13l-3.6,9.72h-1.67l-3.6-9.76h-0.11v9.8
			h-2.26V17.82H51.56z"/>
	</g>
	<g>
		<path d="M28.18,9.34h-6.81v4.3h5.85v1.81h-5.85v4.73h6.81v1.83h-8.75V7.52h8.75V9.34z"/>
	</g>
	<g>
		<path d="M19.36,27.41h4.88c2.98,0,4.57,1.99,4.57,4.73s-1.61,4.71-4.61,4.71h-2.51v4.83h-2.33V27.41z M23.88,34.74
			c1.76,0,2.55-1.08,2.55-2.6c0-1.54-0.79-2.58-2.55-2.58h-2.19v5.18H23.88z"/>
	</g>
	<g>
		<path d="M7.7,22.16h8.65v2.99c0,2.58-1.63,4.15-4.32,4.15c-2.7,0-4.34-1.57-4.34-4.2V22.16z M9.05,25.01
			c0,1.8,0.99,2.73,2.99,2.73c1.98,0,2.96-0.92,2.96-2.68v-1.35H9.05V25.01z"/>
	</g>
	<line class="st2" x1="33.29" y1="5.89" x2="33.29" y2="43.62"/>
</g>
</svg>
